<svg width="65" height="49" viewBox="0 0 65 49" fill="none" xmlns="http://www.w3.org/2000/svg">
<g filter="url(#filter0_dd_31_129)">
<rect x="9.18848" y="4.7063" width="46.6143" height="30.0304" rx="5.37857" fill="white"/>
<rect x="9.07642" y="4.59425" width="46.8384" height="30.2545" rx="5.49062" stroke="#D6DCE5" stroke-width="0.224107"/>
<path d="M24.2657 15.7879C24.5767 15.3989 24.7878 14.8766 24.7321 14.3429C24.2768 14.3655 23.7213 14.6432 23.3997 15.0325C23.1109 15.3659 22.8553 15.9101 22.9219 16.4214C23.433 16.4657 23.9435 16.166 24.2657 15.7879Z" fill="#000008"/>
<path d="M24.7263 16.5212C23.9842 16.477 23.3531 16.9425 22.9987 16.9425C22.6441 16.9425 22.1014 16.5435 21.5144 16.5543C20.7504 16.5655 20.0414 16.9975 19.6537 17.6845C18.8563 19.059 19.4433 21.0978 20.2188 22.2172C20.5954 22.771 21.0492 23.3808 21.6472 23.3589C22.2123 23.3367 22.4337 22.993 23.1206 22.993C23.8069 22.993 24.0064 23.3589 24.6045 23.3478C25.2248 23.3367 25.6125 22.7937 25.9891 22.2394C26.4211 21.6081 26.598 20.9985 26.6091 20.965C26.598 20.9539 25.4131 20.4994 25.4021 19.1363C25.3909 17.995 26.3324 17.4522 26.3767 17.4185C25.845 16.6322 25.0143 16.5435 24.7263 16.5212Z" fill="#000008"/>
<path d="M31.1884 14.9767C32.8014 14.9767 33.9247 16.0886 33.9247 17.7074C33.9247 19.332 32.7783 20.4497 31.1479 20.4497H29.362V23.2899H28.0716V14.9767L31.1884 14.9767ZM29.362 19.3666H30.8426C31.966 19.3666 32.6054 18.7618 32.6054 17.7132C32.6054 16.6648 31.966 16.0656 30.8483 16.0656H29.362V19.3666Z" fill="#000008"/>
<path d="M34.2618 21.5674C34.2618 20.5073 35.0741 19.8563 36.5145 19.7756L38.1735 19.6777V19.2111C38.1735 18.5371 37.7184 18.1338 36.9581 18.1338C36.2378 18.1338 35.7884 18.4794 35.679 19.021H34.5038C34.5729 17.9263 35.5061 17.1198 37.0041 17.1198C38.4731 17.1198 39.4121 17.8975 39.4121 19.1131V23.2899H38.2195V22.2932H38.1908C37.8395 22.9673 37.0732 23.3936 36.2782 23.3936C35.0914 23.3936 34.2618 22.6562 34.2618 21.5674ZM38.1735 21.0201V20.5419L36.6814 20.6341C35.9382 20.686 35.5177 21.0143 35.5177 21.5328C35.5177 22.0628 35.9555 22.4085 36.6238 22.4085C37.4937 22.4085 38.1735 21.8093 38.1735 21.0201Z" fill="#000008"/>
<path d="M40.538 25.5195V24.5112C40.63 24.5342 40.8373 24.5342 40.9411 24.5342C41.5172 24.5342 41.8283 24.2923 42.0184 23.6702C42.0184 23.6586 42.1279 23.3014 42.1279 23.2957L39.9388 17.2293H41.2867L42.8193 22.1608H42.8422L44.3748 17.2293H45.6883L43.4183 23.6067C42.9 25.0759 42.3008 25.5482 41.0449 25.5482C40.9411 25.5482 40.63 25.5367 40.538 25.5195Z" fill="#000008"/>
</g>
<defs>
<filter id="filter0_dd_31_129" x="6.96182e-05" y="3.48091e-05" width="64.9911" height="48.4072" filterUnits="userSpaceOnUse" color-interpolation-filters="sRGB">
<feFlood flood-opacity="0" result="BackgroundImageFix"/>
<feColorMatrix in="SourceAlpha" type="matrix" values="0 0 0 0 0 0 0 0 0 0 0 0 0 0 0 0 0 0 127 0" result="hardAlpha"/>
<feOffset dy="0.448214"/>
<feGaussianBlur stdDeviation="2.24107"/>
<feColorMatrix type="matrix" values="0 0 0 0 0.717647 0 0 0 0 0.717647 0 0 0 0 0.717647 0 0 0 0.08 0"/>
<feBlend mode="normal" in2="BackgroundImageFix" result="effect1_dropShadow_31_129"/>
<feColorMatrix in="SourceAlpha" type="matrix" values="0 0 0 0 0 0 0 0 0 0 0 0 0 0 0 0 0 0 127 0" result="hardAlpha"/>
<feOffset dy="4.48214"/>
<feGaussianBlur stdDeviation="4.48214"/>
<feColorMatrix type="matrix" values="0 0 0 0 0.717647 0 0 0 0 0.717647 0 0 0 0 0.717647 0 0 0 0.08 0"/>
<feBlend mode="normal" in2="effect1_dropShadow_31_129" result="effect2_dropShadow_31_129"/>
<feBlend mode="normal" in="SourceGraphic" in2="effect2_dropShadow_31_129" result="shape"/>
</filter>
</defs>
</svg>
