<svg width="65" height="49" viewBox="0 0 65 49" fill="none" xmlns="http://www.w3.org/2000/svg">
<g filter="url(#filter0_dd_31_131)">
<rect x="9.18848" y="4.7063" width="46.6143" height="30.0304" rx="5.37857" fill="white"/>
<rect x="9.07642" y="4.59425" width="46.8384" height="30.2545" rx="5.49062" stroke="#D6DCE5" stroke-width="0.224107"/>
<path d="M31.4824 23.3205H30.434V15.1622H33.2134C33.9179 15.1622 34.5185 15.397 35.01 15.8667C35.5124 16.3363 35.7636 16.9096 35.7636 17.5868C35.7636 18.2803 35.5124 18.8536 35.01 19.3178C34.524 19.782 33.9233 20.0113 33.2134 20.0113H31.4824V23.3205ZM31.4824 16.167V19.012H33.2353C33.6503 19.012 33.9998 18.87 34.2728 18.5915C34.5513 18.313 34.6933 17.9745 34.6933 17.5922C34.6933 17.2154 34.5513 16.8823 34.2728 16.6038C33.9998 16.3144 33.6557 16.1725 33.2353 16.1725H31.4824V16.167Z" fill="#3C4043"/>
<path d="M38.5047 17.554C39.2801 17.554 39.8917 17.7615 40.3395 18.1765C40.7872 18.5915 41.0111 19.1594 41.0111 19.8803V23.3205H40.0118V22.5451H39.9681C39.5368 23.184 38.9579 23.5007 38.2371 23.5007C37.6201 23.5007 37.1068 23.3205 36.6918 22.9546C36.2767 22.5887 36.0692 22.1355 36.0692 21.5894C36.0692 21.0106 36.2877 20.5519 36.7245 20.2134C37.1614 19.8693 37.7457 19.7 38.4719 19.7C39.0944 19.7 39.6077 19.8147 40.0064 20.0441V19.8038C40.0064 19.4379 39.8644 19.1321 39.575 18.8755C39.2856 18.6188 38.947 18.4932 38.5593 18.4932C37.975 18.4932 37.5109 18.739 37.1723 19.2359L36.2494 18.6571C36.7573 17.9199 37.5109 17.554 38.5047 17.554ZM37.1504 21.6058C37.1504 21.8789 37.2651 22.1082 37.4999 22.2884C37.7293 22.4686 38.0023 22.5614 38.3136 22.5614C38.7559 22.5614 39.149 22.3976 39.4931 22.07C39.8371 21.7423 40.0118 21.3601 40.0118 20.9178C39.6842 20.6611 39.231 20.5301 38.6467 20.5301C38.2207 20.5301 37.8658 20.6338 37.5818 20.8359C37.2924 21.0488 37.1504 21.3055 37.1504 21.6058Z" fill="#3C4043"/>
<path d="M46.7121 17.7343L43.2173 25.7724H42.1361L43.4357 22.9601L41.1313 17.7343H42.2726L43.9326 21.7424H43.9545L45.5708 17.7343H46.7121Z" fill="#3C4043"/>
<path d="M27.312 19.3506C27.312 19.0087 27.2815 18.6816 27.2247 18.3671H22.8299V20.1691L25.3609 20.1697C25.2583 20.7693 24.9279 21.2804 24.4217 21.6211V22.7902H25.9283C26.808 21.9761 27.312 20.7725 27.312 19.3506Z" fill="#4285F4"/>
<path d="M24.4222 21.6212C24.0029 21.904 23.4628 22.0695 22.831 22.0695C21.6106 22.0695 20.5752 21.2471 20.2044 20.1386H18.6503V21.3443C19.4203 22.8722 21.0028 23.9207 22.831 23.9207C24.0946 23.9207 25.1562 23.5051 25.9288 22.7898L24.4222 21.6212Z" fill="#34A853"/>
<path d="M20.0581 19.2441C20.0581 18.9328 20.1099 18.6319 20.2044 18.3491V17.1434H18.6503C18.3319 17.7752 18.1528 18.4883 18.1528 19.2441C18.1528 19.9998 18.3325 20.713 18.6503 21.3448L20.2044 20.1391C20.1099 19.8562 20.0581 19.5553 20.0581 19.2441Z" fill="#FABB05"/>
<path d="M22.831 16.4182C23.5207 16.4182 24.1383 16.6557 24.6259 17.1199L25.9611 15.7858C25.1502 15.0306 24.093 14.567 22.831 14.567C21.0033 14.567 19.4202 15.6155 18.6503 17.1434L20.2044 18.3491C20.5752 17.2406 21.6106 16.4182 22.831 16.4182Z" fill="#E94235"/>
</g>
<defs>
<filter id="filter0_dd_31_131" x="6.96182e-05" y="3.48091e-05" width="64.9911" height="48.4072" filterUnits="userSpaceOnUse" color-interpolation-filters="sRGB">
<feFlood flood-opacity="0" result="BackgroundImageFix"/>
<feColorMatrix in="SourceAlpha" type="matrix" values="0 0 0 0 0 0 0 0 0 0 0 0 0 0 0 0 0 0 127 0" result="hardAlpha"/>
<feOffset dy="0.448214"/>
<feGaussianBlur stdDeviation="2.24107"/>
<feColorMatrix type="matrix" values="0 0 0 0 0.717647 0 0 0 0 0.717647 0 0 0 0 0.717647 0 0 0 0.08 0"/>
<feBlend mode="normal" in2="BackgroundImageFix" result="effect1_dropShadow_31_131"/>
<feColorMatrix in="SourceAlpha" type="matrix" values="0 0 0 0 0 0 0 0 0 0 0 0 0 0 0 0 0 0 127 0" result="hardAlpha"/>
<feOffset dy="4.48214"/>
<feGaussianBlur stdDeviation="4.48214"/>
<feColorMatrix type="matrix" values="0 0 0 0 0.717647 0 0 0 0 0.717647 0 0 0 0 0.717647 0 0 0 0.08 0"/>
<feBlend mode="normal" in2="effect1_dropShadow_31_131" result="effect2_dropShadow_31_131"/>
<feBlend mode="normal" in="SourceGraphic" in2="effect2_dropShadow_31_131" result="shape"/>
</filter>
</defs>
</svg>
